<?xml version="1.0" encoding="UTF-8" standalone="no"?>
<svg
   version="1.1"
   width="202.48268"
   height="314.9827"
   id="svg2"
   sodipodi:docname="JK_2.svg"
   inkscape:version="1.1.2 (76b9e6a115, 2022-02-25)"
   xmlns:inkscape="http://www.inkscape.org/namespaces/inkscape"
   xmlns:sodipodi="http://sodipodi.sourceforge.net/DTD/sodipodi-0.dtd"
   xmlns="http://www.w3.org/2000/svg"
   xmlns:svg="http://www.w3.org/2000/svg">
  <defs
     id="defs1471" />
  <sodipodi:namedview
     id="namedview1469"
     pagecolor="#ffffff"
     bordercolor="#666666"
     borderopacity="1.0"
     inkscape:pageshadow="2"
     inkscape:pageopacity="0.0"
     inkscape:pagecheckerboard="0"
     showgrid="false"
     inkscape:zoom="5.2011833"
     inkscape:cx="100.45791"
     inkscape:cy="159.09841"
     inkscape:window-width="1920"
     inkscape:window-height="1016"
     inkscape:window-x="0"
     inkscape:window-y="27"
     inkscape:window-maximized="1"
     inkscape:current-layer="svg2" />
  <path
     d="m 159.33766,185.05167 c -6.7529,0.17203 -16.29709,3.52183 -25.70682,9.46424 -15.05652,9.50906 -24.16457,22.1341 -20.33018,28.20614 l 3.02875,4.76967 c 3.83319,6.07204 19.16714,3.29892 34.22488,-6.20893 7.69787,-4.86175 13.83533,-10.54611 17.49042,-15.7495 v -16.961 l -0.18899,-0.30288 c -1.43805,-2.27641 -4.4668,-3.32193 -8.51806,-3.21774 z"
     style="fill:#ffffff;fill-rule:evenodd;stroke:#0600ff;stroke-width:1.27207506;stroke-linecap:square;stroke-linejoin:round;stroke-opacity:1;stroke-miterlimit:4;stroke-dasharray:none"
     id="path12331" />
  <path
     d="m 159.33766,185.05167 c -6.7529,0.17203 -16.29709,3.52183 -25.70682,9.46424 -15.05652,9.50906 -24.16457,22.1341 -20.33018,28.20614 3.83319,6.07083 19.16714,3.26136 34.22488,-6.24771 10.62849,-6.71171 18.27669,-14.96808 20.51917,-21.39024 v -6.51181 c -0.0569,-0.1054 -0.12478,-0.20111 -0.18899,-0.30288 -1.43805,-2.27641 -4.4668,-3.32193 -8.51806,-3.21774 z m -10.26019,11.20637 c 1.83542,-0.0472 3.21047,0.40828 3.86105,1.43805 1.73608,2.74769 -2.38544,8.49383 -9.19892,12.79708 -6.81469,4.30325 -13.74931,5.54867 -15.48539,2.80099 -1.73487,-2.74769 2.38544,-8.49262 9.20013,-12.79587 4.25842,-2.68953 8.56288,-4.1615 11.62313,-4.24025 z"
     style="fill:#dd0000;fill-rule:evenodd;stroke:#0600ff;stroke-width:1.27207506;stroke-linecap:square;stroke-linejoin:round;stroke-opacity:1;stroke-miterlimit:4;stroke-dasharray:none"
     id="path12333" />
  <g
     transform="matrix(0.61144405,-0.4564932,0.4564932,0.61144405,-411.25085,-767.09114)"
     id="g12337"
     style="opacity:1;stroke:#0600ff;stroke-opacity:1;stroke-width:0.85873783;stroke-miterlimit:4;stroke-dasharray:none">
    <path
       d="m -223.505,1351.353 c 0,0 -18.638,-11.213 -29.705,-6.99 -6.258,14.669 -14.707,13.324 -23.881,30.87 -13.542,10.266 -45.722,10.193 -45.722,10.193 l -2.33,-5.824 c 25.515,-12.83 30.539,-26.996 34.074,-40.19 3.582,-13.368 13.542,-21.405 23.298,-25.628 3.204,-0.277 8.563,3.559 11.28,5.422 16.205,-4.21 12.711,-3.337 23.24,-2.329 10.529,1.008 19.066,-6.296 31.297,-4.549"
       style="fill:#ffdd00;stroke:#0600ff;stroke-width:0.85873783;stroke-linecap:square;stroke-linejoin:round;stroke-opacity:1;stroke-miterlimit:4;stroke-dasharray:none"
       id="path12339" />
    <path
       d="m -209.235,1320.483 c -17.925,-0.393 -34.884,6.225 -52.712,1.747"
       style="fill:none;stroke:#0600ff;stroke-width:0.85873783;stroke-linecap:square;stroke-linejoin:round;stroke-opacity:1;stroke-miterlimit:4;stroke-dasharray:none"
       id="path12341" />
    <path
       d="m -248.842,1323.395 c -5.167,-1.719 -5.088,-1.967 -7.727,-4.01"
       style="fill:none;stroke:#0600ff;stroke-width:0.85873783;stroke-linecap:square;stroke-linejoin:round;stroke-opacity:1;stroke-miterlimit:4;stroke-dasharray:none"
       id="path12343" />
    <path
       d="m -253.21,1344.655 c 0.839,-1.558 1.831,-5.448 0.291,-10.193"
       style="fill:none;stroke:#0600ff;stroke-width:0.85873783;stroke-linecap:square;stroke-linejoin:round;stroke-opacity:1;stroke-miterlimit:4;stroke-dasharray:none"
       id="path12345" />
    <path
       d="m -290.778,1339.995 c 0.582,6.407 -1.617,9.028 -0.583,15.435"
       style="fill:none;stroke:#0600ff;stroke-width:0.85873783;stroke-linecap:square;stroke-linejoin:round;stroke-opacity:1;stroke-miterlimit:4;stroke-dasharray:none"
       id="path12347" />
  </g>
  <path
     d="m 87.643516,140.546 c -10.706026,8.36299 -18.998743,22.49271 -16.189275,32.39309 0.74265,2.61321 2.410886,5.35725 4.670333,8.13886 -3.626019,2.98392 -3.999161,8.70947 -0.809282,12.98122 3.273473,4.38563 9.077769,5.59834 12.976376,2.68832 1.021295,-0.76203 1.801501,-1.78575 2.35031,-2.87974 17.818742,12.17558 42.710222,20.89838 52.153862,13.84866 9.34915,-6.97945 6.94795,-31.33908 0.41433,-51.68744 1.24058,-0.28106 2.48116,-0.82139 3.56545,-1.63067 4.14212,-3.09175 4.98411,-8.89605 1.89236,-13.03817 -2.9391,-3.93495 -8.34844,-4.90657 -12.43726,-2.34183 -2.08983,-3.95191 -4.30203,-7.29444 -6.49969,-9.58538 -4.96715,-5.17796 -26.4422,-1.11095 -42.087514,11.11308 z"
     style="fill:#ffffff;fill-rule:evenodd;stroke:#0600ff;stroke-width:1.21150005;stroke-linecap:square;stroke-linejoin:round;stroke-opacity:1;stroke-miterlimit:4;stroke-dasharray:none"
     id="path12349" />
  <path
     d="m 110.85222,191.57681 c 10.78235,-3.55091 19.11868,-9.44849 23.32138,-17.94353 -1.69853,11.71642 1.78575,16.65813 -4.0658,20.04548 -5.85154,3.38857 -10.35227,-2.01472 -19.25558,-2.10195 z"
     style="fill:#dd0000;stroke:#0600ff;stroke-width:0.90862501;stroke-linecap:square;stroke-linejoin:round;stroke-opacity:1;stroke-miterlimit:4;stroke-dasharray:none"
     id="path12351" />
  <path
     d="m 120.52847,163.86375 c 1.2745,0.82139 2.44723,1.72033 4.60007,1.8863"
     style="fill:#dd0000;stroke:#0600ff;stroke-width:0.78747499;stroke-linecap:square;stroke-linejoin:round;stroke-opacity:1;stroke-miterlimit:4;stroke-dasharray:none"
     id="path12353" />
  <path
     d="m 102.35597,177.29686 c 0.39011,1.34719 0.89045,2.47388 0.73538,4.90415"
     style="fill:#dd0000;stroke:#0600ff;stroke-width:0.78747499;stroke-linecap:square;stroke-linejoin:round;stroke-opacity:1;stroke-miterlimit:4;stroke-dasharray:none"
     id="path12355" />
  <path
     d="m 113.90762,178.07343 c 1.96263,-0.46522 4.0137,-0.27865 5.52081,-4.12152"
     style="fill:#dd0000;stroke:#0600ff;stroke-width:0.90862501;stroke-linecap:square;stroke-linejoin:round;stroke-opacity:1;stroke-miterlimit:4;stroke-dasharray:none"
     id="path12357" />
  <g
     transform="matrix(0.74567825,-0.55668425,0.55668425,0.74567825,-568.50016,-924.40635)"
     id="g12359"
     style="stroke:#0600ff;stroke-opacity:1;stroke-width:0.57741162;stroke-miterlimit:4;stroke-dasharray:none">
    <path
       d="m -132.083,1369.396 c 0.224,-5.434 -8.053,-3.633 -10.437,-2.482"
       style="fill:none;stroke:#0600ff;stroke-width:0.57741162;stroke-linecap:square;stroke-linejoin:round;stroke-opacity:1;stroke-miterlimit:4;stroke-dasharray:none"
       id="path12361" />
    <path
       d="m -136.626,1366.515 a 1.048,1.187 0 1 1 -2.095,0 1.048,1.187 0 1 1 2.095,0 z"
       transform="matrix(1.2709,0.1729,-0.1729,1.2709,274.8022,-345.1306)"
       style="fill:none;stroke:#0600ff;stroke-width:0.45018586;stroke-linecap:square;stroke-linejoin:round;stroke-opacity:1;stroke-miterlimit:4;stroke-dasharray:none"
       id="path12363" />
    <path
       d="m -140.605,1361.769 c 2.607,-2.443 4.612,-3.432 7.82,-3.909"
       style="opacity:1;fill:none;stroke:#0600ff;stroke-width:0.57741162;stroke-linecap:square;stroke-linejoin:round;stroke-opacity:1;stroke-miterlimit:4;stroke-dasharray:none"
       id="path12365" />
  </g>
  <g
     transform="matrix(-0.74567825,0.55668425,0.55668425,0.74567825,-746.80013,-791.2963)"
     id="g12367"
     style="stroke:#0600ff;stroke-opacity:1;stroke-width:0.57741162;stroke-miterlimit:4;stroke-dasharray:none">
    <path
       d="m -132.083,1369.396 c 0.224,-5.434 -8.053,-3.633 -10.437,-2.482"
       style="fill:none;stroke:#0600ff;stroke-width:0.57741162;stroke-linecap:square;stroke-linejoin:round;stroke-opacity:1;stroke-miterlimit:4;stroke-dasharray:none"
       id="path12369" />
    <path
       d="m -136.626,1366.515 a 1.048,1.187 0 1 1 -2.095,0 1.048,1.187 0 1 1 2.095,0 z"
       transform="matrix(1.2709,0.1729,-0.1729,1.2709,274.8022,-345.1306)"
       style="fill:none;stroke:#0600ff;stroke-width:0.45018586;stroke-linecap:square;stroke-linejoin:round;stroke-opacity:1;stroke-miterlimit:4;stroke-dasharray:none"
       id="path12371" />
    <path
       d="m -141.163,1362.188 c 2.606,-2.443 5.17,-3.013 8.378,-3.49"
       style="opacity:1;fill:none;stroke:#0600ff;stroke-width:0.57741162;stroke-linecap:square;stroke-linejoin:round;stroke-opacity:1;stroke-miterlimit:4;stroke-dasharray:none"
       id="path12373" />
  </g>
  <path
     d="m 82.277782,184.81543 -3.361912,3.32072 c 2.522343,-2.22068 4.959881,-0.13327 7.407111,1.44653"
     style="fill:none;stroke:#0600ff;stroke-width:0.90862501;stroke-linecap:square;stroke-linejoin:round;stroke-opacity:1;stroke-miterlimit:4;stroke-dasharray:none"
     id="path12375" />
  <path
     d="m 138.32904,145.59796 4.382,-1.76637 c -3.03966,1.432 -1.77727,3.61512 -1.29994,6.4888"
     style="fill:none;stroke:#0600ff;stroke-width:0.90862501;stroke-linecap:square;stroke-linejoin:round;stroke-opacity:1;stroke-miterlimit:4;stroke-dasharray:none"
     id="path12377" />
  <g
     transform="matrix(0.61144405,-0.4564932,0.4564932,0.61144405,-453.71041,-735.39285)"
     id="g12379"
     style="stroke:#0600ff;stroke-opacity:1;stroke-width:0.85873783;stroke-miterlimit:4;stroke-dasharray:none">
    <path
       d="m -253.368,1385.666 a 7.281,7.281 0 1 1 -14.561,0 7.281,7.281 0 1 1 14.561,0 z"
       transform="translate(-0.5825,-1.1649)"
       style="opacity:1;fill:#ffdd00;stroke:#0600ff;stroke-width:0.85873783;stroke-linecap:square;stroke-linejoin:round;stroke-opacity:1;stroke-miterlimit:4;stroke-dasharray:none"
       id="path12381" />
    <path
       d="m -256.789,1390.172 c -0.212,1.045 -2.236,2.328 -2.106,1.216 0.545,-4.685 -4.618,-11.786 -7.964,-12.43 -0.333,-0.064 0.591,-1.372 2.107,-1.216 4.45,0.46 8.92,7.709 7.963,12.43 z m -10.058,-1.667 c 1.444,-0.546 2.757,-1.134 3.547,-1.898"
       style="fill:#ffdd00;stroke:#0600ff;stroke-width:0.85873783;stroke-linecap:square;stroke-linejoin:round;stroke-opacity:1;stroke-miterlimit:4;stroke-dasharray:none"
       id="path12383" />
  </g>
  <path
     d="m 84.576269,156.51515 c -11.011191,-13.02512 -10.37127,-34.26087 -4.463399,-50.42951 -21.331736,21.54528 -23.580083,47.80578 -11.019121,65.78731 5.332301,-5.8687 10.466334,-10.9287 15.48252,-15.3578 z"
     style="fill:#dd0000;stroke:#0600ff;stroke-width:1.226825;stroke-linecap:square;stroke-linejoin:round;stroke-opacity:1;stroke-miterlimit:4;stroke-dasharray:none"
     id="path12387" />
  <path
     d="m 84.576269,156.51515 c -11.011191,-13.02512 -10.37127,-34.26087 -4.463399,-50.42951 26.04847,-1.3926 33.68132,5.83424 48.36519,21.45362 -17.74232,9.02596 -28.824223,14.5175 -43.901791,28.97589 z"
     style="fill:#ffdd00;stroke:#0600ff;stroke-width:1.226825;stroke-linecap:square;stroke-linejoin:round;stroke-opacity:1;stroke-miterlimit:4;stroke-dasharray:none"
     id="path12389" />
  <g
     transform="matrix(0.53923865,0.10915615,-0.10915615,0.53923865,367.2141,-573.29039)"
     id="g12391"
     style="stroke:#0600ff;stroke-opacity:1;stroke-width:1.65183659;stroke-miterlimit:4;stroke-dasharray:none">
    <path
       d="m -253.368,1385.666 a 7.281,7.281 0 1 1 -14.561,0 7.281,7.281 0 1 1 14.561,0 z"
       transform="translate(-0.5825,-1.1649)"
       style="opacity:1;fill:#ffdd00;stroke:#0600ff;stroke-width:1.65183659;stroke-linecap:square;stroke-linejoin:round;stroke-opacity:1;stroke-miterlimit:4;stroke-dasharray:none"
       id="path12393" />
    <path
       d="m -256.789,1390.172 c -0.212,1.045 -2.236,2.328 -2.106,1.216 0.545,-4.685 -4.618,-11.786 -7.964,-12.43 -0.333,-0.064 0.591,-1.372 2.107,-1.216 4.45,0.46 8.92,7.709 7.963,12.43 z m -10.058,-1.667 c 1.444,-0.546 2.757,-1.134 3.547,-1.898"
       style="fill:#ffdd00;stroke:#0600ff;stroke-width:1.65183659;stroke-linecap:square;stroke-linejoin:round;stroke-opacity:1;stroke-miterlimit:4;stroke-dasharray:none"
       id="path12395" />
  </g>
  <g
     transform="matrix(0.48254045,0.26447045,-0.26447045,0.48254045,564.79182,-463.91617)"
     id="g12397"
     style="stroke:#0600ff;stroke-opacity:1;stroke-width:1.65130997;stroke-miterlimit:4;stroke-dasharray:none">
    <path
       d="m -253.368,1385.666 a 7.281,7.281 0 1 1 -14.561,0 7.281,7.281 0 1 1 14.561,0 z"
       transform="translate(-0.5825,-1.1649)"
       style="opacity:1;fill:#ffdd00;stroke:#0600ff;stroke-width:1.65130997;stroke-linecap:square;stroke-linejoin:round;stroke-opacity:1;stroke-miterlimit:4;stroke-dasharray:none"
       id="path12399" />
    <path
       d="m -256.789,1390.172 c -0.212,1.045 -2.236,2.328 -2.106,1.216 0.545,-4.685 -4.618,-11.786 -7.964,-12.43 -0.333,-0.064 0.591,-1.372 2.107,-1.216 4.45,0.46 8.92,7.709 7.963,12.43 z m -10.058,-1.667 c 1.444,-0.546 2.757,-1.134 3.547,-1.898"
       style="fill:#ffdd00;stroke:#0600ff;stroke-width:1.65130997;stroke-linecap:square;stroke-linejoin:round;stroke-opacity:1;stroke-miterlimit:4;stroke-dasharray:none"
       id="path12401" />
  </g>
  <g
     transform="matrix(0.4320209,0.3406738,-0.3406738,0.4320209,656.90665,-384.07432)"
     id="g12403"
     style="stroke:#0600ff;stroke-opacity:1;stroke-width:1.65179672;stroke-miterlimit:4;stroke-dasharray:none">
    <path
       d="m -253.368,1385.666 a 7.281,7.281 0 1 1 -14.561,0 7.281,7.281 0 1 1 14.561,0 z"
       transform="translate(-0.5825,-1.1649)"
       style="opacity:1;fill:#ffdd00;stroke:#0600ff;stroke-width:1.65179672;stroke-linecap:square;stroke-linejoin:round;stroke-opacity:1;stroke-miterlimit:4;stroke-dasharray:none"
       id="path12405" />
    <path
       d="m -256.789,1390.172 c -0.212,1.045 -2.236,2.328 -2.106,1.216 0.545,-4.685 -4.618,-11.786 -7.964,-12.43 -0.333,-0.064 0.591,-1.372 2.107,-1.216 4.45,0.46 8.92,7.709 7.963,12.43 z m -10.058,-1.667 c 1.444,-0.546 2.757,-1.134 3.547,-1.898"
       style="fill:#ffdd00;stroke:#0600ff;stroke-width:1.65179672;stroke-linecap:square;stroke-linejoin:round;stroke-opacity:1;stroke-miterlimit:4;stroke-dasharray:none"
       id="path12407" />
  </g>
  <g
     transform="matrix(0.3685383,0.4085178,-0.4085178,0.3685383,735.84387,-287.82998)"
     id="g12409"
     style="stroke:#0600ff;stroke-opacity:1;stroke-width:1.65176079;stroke-miterlimit:4;stroke-dasharray:none">
    <path
       d="m -253.368,1385.666 a 7.281,7.281 0 1 1 -14.561,0 7.281,7.281 0 1 1 14.561,0 z"
       transform="translate(-0.5825,-1.1649)"
       style="opacity:1;fill:#ffdd00;stroke:#0600ff;stroke-width:1.65176079;stroke-linecap:square;stroke-linejoin:round;stroke-opacity:1;stroke-miterlimit:4;stroke-dasharray:none"
       id="path12411" />
    <path
       d="m -256.789,1390.172 c -0.212,1.045 -2.236,2.328 -2.106,1.216 0.545,-4.685 -4.618,-11.786 -7.964,-12.43 -0.333,-0.064 0.591,-1.372 2.107,-1.216 4.45,0.46 8.92,7.709 7.963,12.43 z m -10.058,-1.667 c 1.444,-0.546 2.757,-1.134 3.547,-1.898"
       style="fill:#ffdd00;stroke:#0600ff;stroke-width:1.65176079;stroke-linecap:square;stroke-linejoin:round;stroke-opacity:1;stroke-miterlimit:4;stroke-dasharray:none"
       id="path12413" />
  </g>
  <path
     d="m 84.277969,112.52886 c 2.805834,14.26662 29.788361,16.48003 30.988961,14.02311 0,0 6.27799,-15.36303 14.97171,-17.83207 10.52188,6.11202 13.72145,-4.17968 27.33871,2.36121 10.88654,5.43843 17.71213,2.67015 19.89889,7.62155 l 5.20461,-2.33698 c -9.14441,-10.11966 -23.37105,-21.501706 -31.55473,-27.954155 -8.29151,-6.538466 -18.05014,-6.90555 -25.94185,-5.034994 -2.08621,1.293882 -3.61148,6.084153 -4.42198,8.463539 -11.8303,4.822982 -9.29463,3.761708 -15.27338,9.18438 -5.97754,5.42268 -14.529518,4.85327 -21.210941,11.50441 z"
     style="fill:#dd0000;stroke:#0600ff;stroke-width:0.78747499;stroke-linecap:square;stroke-linejoin:round;stroke-opacity:1;stroke-miterlimit:4;stroke-dasharray:none"
     id="path12415" />
  <path
     d="m 118.66882,99.306545 c -0.69056,-4.951401 1.54103,-4.939286 2.22189,-7.392574"
     style="fill:none;stroke:#0600ff;stroke-width:0.78747499;stroke-linecap:square;stroke-linejoin:round;stroke-opacity:1;stroke-miterlimit:4;stroke-dasharray:none"
     id="path12417" />
  <path
     d="m 132.21097,103.49591 c -0.38041,2.0644 0.42402,3.09054 -1.83906,5.40208 4.90536,-0.92195 5.17916,-1.25996 6.70323,-3.38372"
     style="fill:none;stroke:#0600ff;stroke-width:0.78747499;stroke-linecap:square;stroke-linejoin:round;stroke-opacity:1;stroke-miterlimit:4;stroke-dasharray:none"
     id="path12419" />
  <path
     d="m 151.21456,88.900971 c 2.56838,4.18331 1.85238,6.063558 4.14454,10.452822"
     style="fill:none;stroke:#0600ff;stroke-width:0.78747499;stroke-linecap:square;stroke-linejoin:round;stroke-opacity:1;stroke-miterlimit:4;stroke-dasharray:none"
     id="path12421" />
  <g
     transform="matrix(-0.0564559,-0.76094315,0.76094315,-0.0564559,-885.54813,0.25369875)"
     id="g12423"
     style="stroke:#0600ff;stroke-opacity:1;stroke-width:0.85877935;stroke-miterlimit:4;stroke-dasharray:none">
    <path
       d="m -253.368,1385.666 a 7.281,7.281 0 1 1 -14.561,0 7.281,7.281 0 1 1 14.561,0 z"
       transform="translate(-0.5825,-1.1649)"
       style="opacity:1;fill:#ffdd00;stroke:#0600ff;stroke-width:0.85877935;stroke-linecap:square;stroke-linejoin:round;stroke-opacity:1;stroke-miterlimit:4;stroke-dasharray:none"
       id="path12425" />
    <path
       d="m -256.789,1390.172 c -0.212,1.045 -2.236,2.328 -2.106,1.216 0.545,-4.685 -4.618,-11.786 -7.964,-12.43 -0.333,-0.064 0.591,-1.372 2.107,-1.216 4.45,0.46 8.92,7.709 7.963,12.43 z m -10.058,-1.667 c 1.444,-0.546 2.757,-1.134 3.547,-1.898"
       style="fill:#ffdd00;stroke:#0600ff;stroke-width:0.85877935;stroke-linecap:square;stroke-linejoin:round;stroke-opacity:1;stroke-miterlimit:4;stroke-dasharray:none"
       id="path12427" />
  </g>
</svg>
